<?xml version="1.0" encoding="UTF-8"?>
<!DOCTYPE svg PUBLIC "-//W3C//DTD SVG 1.1//EN" "http://www.w3.org/Graphics/SVG/1.1/DTD/svg11.dtd">
<svg xmlns="http://www.w3.org/2000/svg" version="1.1" width="897px" height="897px" style="shape-rendering:geometricPrecision; text-rendering:geometricPrecision; image-rendering:optimizeQuality; fill-rule:evenodd; clip-rule:evenodd" xmlns:xlink="http://www.w3.org/1999/xlink">
<g><path style="opacity:1" fill="#121212" d="M -0.5,-0.5 C 298.5,-0.5 597.5,-0.5 896.5,-0.5C 896.5,298.5 896.5,597.5 896.5,896.5C 597.5,896.5 298.5,896.5 -0.5,896.5C -0.5,597.5 -0.5,298.5 -0.5,-0.5 Z"/></g>
<g><path style="opacity:1" fill="#f2f2f2" d="M 455.5,319.5 C 475.169,319.333 494.836,319.5 514.5,320C 520.527,320.427 526.527,321.093 532.5,322C 535.08,324.544 535.08,327.044 532.5,329.5C 528.318,331.022 523.985,331.855 519.5,332C 482.768,333.361 446.102,335.695 409.5,339C 391.167,339.333 372.833,339.667 354.5,340C 330.874,342.028 307.208,343.362 283.5,344C 263.573,345.435 243.739,347.601 224,350.5C 217.152,350.158 214.985,346.825 217.5,340.5C 218.5,340 219.5,339.5 220.5,339C 285.113,329.075 350.113,323.742 415.5,323C 428.993,321.94 442.326,320.774 455.5,319.5 Z"/></g>
<g><path style="opacity:1" fill="#f4f4f4" d="M 414.5,441.5 C 413.523,430.248 413.189,418.914 413.5,407.5C 413.667,396.828 413.5,386.161 413,375.5C 412.598,374.128 412.098,372.795 411.5,371.5C 406.862,368.815 401.862,367.982 396.5,369C 395.069,369.465 393.903,370.299 393,371.5C 389.605,392.693 387.772,414.026 387.5,435.5C 387.5,436.5 387.5,437.5 387.5,438.5C 377.016,437.644 366.683,435.811 356.5,433C 335.734,431.224 315.067,428.724 294.5,425.5C 294.304,412.419 295.137,399.419 297,386.5C 298.185,384.13 299.351,381.797 300.5,379.5C 300.182,378.353 299.516,377.519 298.5,377C 292.5,376.333 286.5,376.333 280.5,377C 279.333,378.167 278.167,379.333 277,380.5C 274.361,394.081 272.194,407.748 270.5,421.5C 257.73,420.482 245.063,418.816 232.5,416.5C 233.5,395.837 234.5,375.17 235.5,354.5C 253.337,351.363 271.337,349.363 289.5,348.5C 302.37,348.771 315.036,348.104 327.5,346.5C 353.469,344.963 379.469,344.13 405.5,344C 424.444,341.795 443.444,340.295 462.5,339.5C 462.091,343.798 460.758,347.798 458.5,351.5C 455.215,352.324 451.882,352.824 448.5,353C 445.989,355.179 443.822,357.679 442,360.5C 440.166,377.169 438.333,393.835 436.5,410.5C 437.25,414.99 439.917,416.657 444.5,415.5C 444.5,424.5 444.5,433.5 444.5,442.5C 434.461,442.758 424.461,442.424 414.5,441.5 Z"/></g>
<g><path style="opacity:1" fill="#c9c9c9" d="M 327.5,346.5 C 315.036,348.104 302.37,348.771 289.5,348.5C 301.987,347.356 314.654,346.689 327.5,346.5 Z"/></g>
<g><path style="opacity:1" fill="#f5f5f5" d="M 743.5,379.5 C 733.073,397.691 724.24,416.691 717,436.5C 711.954,440.386 706.787,444.053 701.5,447.5C 694.715,450.428 687.715,452.762 680.5,454.5C 680.5,455.5 680.5,456.5 680.5,457.5C 678.143,457.337 675.81,457.503 673.5,458C 660.418,466.703 646.418,473.703 631.5,479C 616.734,482.691 602.068,486.691 587.5,491C 571.901,493.115 556.234,494.448 540.5,495C 539.354,495.645 538.354,496.478 537.5,497.5C 536.205,496.902 534.872,496.402 533.5,496C 511.832,495.468 490.166,494.968 468.5,494.5C 459.05,492.86 449.384,492.193 439.5,492.5C 413.943,489.305 388.277,487.472 362.5,487C 329.53,483.923 296.863,478.923 264.5,472C 248.806,467.147 233.14,462.314 217.5,457.5C 210.884,455.017 204.218,452.851 197.5,451C 189.087,439.435 181.753,427.268 175.5,414.5C 228.468,426.527 281.801,436.693 335.5,445C 378.654,450.659 421.987,454.659 465.5,457C 513.798,459.697 561.131,454.364 607.5,441C 635.02,428.742 662.686,416.742 690.5,405C 708.301,396.678 725.968,388.178 743.5,379.5 Z"/></g>
<g><path style="opacity:1" fill="#ececec" d="M 743.5,372.5 C 735.881,377.606 727.881,382.106 719.5,386C 681.685,402.409 644.019,419.076 606.5,436C 576.231,445.515 545.231,450.848 513.5,452C 433.561,451.415 354.228,444.081 275.5,430C 242.881,422.9 210.214,416.233 177.5,410C 174.177,408.861 171.51,407.027 169.5,404.5C 209.962,415.042 250.962,422.709 292.5,427.5C 324.454,431.217 356.454,435.55 388.5,440.5C 420.085,443.805 451.752,445.805 483.5,446.5C 492.833,446.333 502.167,446.167 511.5,446C 530.725,442.615 550.059,439.949 569.5,438C 587.96,432.801 606.294,427.134 624.5,421C 670.979,402.593 715.645,380.759 758.5,355.5C 759.308,355.808 759.975,356.308 760.5,357C 755.641,363.089 749.975,368.255 743.5,372.5 Z"/></g>
<g><path style="opacity:1" fill="#1a1a1a" d="M 743.5,372.5 C 743.611,373.117 743.944,373.617 744.5,374C 743.328,374.419 742.328,375.085 741.5,376C 740.952,377.596 741.618,378.763 743.5,379.5C 725.968,388.178 708.301,396.678 690.5,405C 662.686,416.742 635.02,428.742 607.5,441C 561.131,454.364 513.798,459.697 465.5,457C 421.987,454.659 378.654,450.659 335.5,445C 281.801,436.693 228.468,426.527 175.5,414.5C 176.501,413.211 176.334,411.878 175,410.5C 172.705,410.689 170.705,412.023 169,414.5C 168.5,414 168,413.5 167.5,413C 172.396,410.876 172.396,409.543 167.5,409C 168.099,407.378 168.766,405.878 169.5,404.5C 171.51,407.027 174.177,408.861 177.5,410C 210.214,416.233 242.881,422.9 275.5,430C 354.228,444.081 433.561,451.415 513.5,452C 545.231,450.848 576.231,445.515 606.5,436C 644.019,419.076 681.685,402.409 719.5,386C 727.881,382.106 735.881,377.606 743.5,372.5 Z"/></g>
<g><path style="opacity:1" fill="#272727" d="M 294.5,425.5 C 315.067,428.724 335.734,431.224 356.5,433C 366.683,435.811 377.016,437.644 387.5,438.5C 387.5,437.5 387.5,436.5 387.5,435.5C 388.239,435.369 388.906,435.536 389.5,436C 388.62,437.356 388.286,438.856 388.5,440.5C 356.454,435.55 324.454,431.217 292.5,427.5C 294.199,427.66 295.866,427.494 297.5,427C 296.263,426.768 295.263,426.268 294.5,425.5 Z"/></g>
<g><path style="opacity:1" fill="#969696" d="M 413.5,407.5 C 413.189,418.914 413.523,430.248 414.5,441.5C 413.171,436.208 412.504,430.542 412.5,424.5C 412.501,418.657 412.834,412.99 413.5,407.5 Z"/></g>
<g><path style="opacity:1" fill="#f5f5f5" d="M 685.5,506.5 C 659.146,514.418 633.146,523.252 607.5,533C 581.283,539.808 554.617,542.474 527.5,541C 516.246,542.737 504.913,543.737 493.5,544C 440.799,544.818 388.132,546.151 335.5,548C 323.374,547.182 311.374,545.515 299.5,543C 284.995,537.446 270.661,531.613 256.5,525.5C 252.134,523.978 247.801,522.478 243.5,521C 236.952,513.454 230.785,505.621 225,497.5C 217.564,484.403 209.73,471.57 201.5,459C 206.433,460.113 211.433,461.28 216.5,462.5C 231.661,467.563 246.994,472.397 262.5,477C 291.382,482.599 320.382,487.266 349.5,491C 389.266,492.473 428.932,495.14 468.5,499C 496.154,500.411 523.821,500.744 551.5,500C 587.432,496.35 622.099,487.684 655.5,474C 670.508,464.827 686.174,457.327 702.5,451.5C 705.298,450.9 707.965,449.9 710.5,448.5C 710.833,448.833 711.167,449.167 711.5,449.5C 704.844,468.306 697.511,486.806 689.5,505C 688.099,505.41 686.766,505.91 685.5,506.5 Z"/></g>
<g><path style="opacity:1" fill="#1c1c1c" d="M 701.5,447.5 C 701.433,448.959 701.766,450.292 702.5,451.5C 686.174,457.327 670.508,464.827 655.5,474C 622.099,487.684 587.432,496.35 551.5,500C 523.821,500.744 496.154,500.411 468.5,499C 428.932,495.14 389.266,492.473 349.5,491C 320.382,487.266 291.382,482.599 262.5,477C 246.994,472.397 231.661,467.563 216.5,462.5C 217.978,462.762 219.311,462.429 220.5,461.5C 219.09,460.431 218.09,459.097 217.5,457.5C 233.14,462.314 248.806,467.147 264.5,472C 296.863,478.923 329.53,483.923 362.5,487C 388.277,487.472 413.943,489.305 439.5,492.5C 448.988,493.566 458.655,494.233 468.5,494.5C 490.166,494.968 511.832,495.468 533.5,496C 534.872,496.402 536.205,496.902 537.5,497.5C 538.354,496.478 539.354,495.645 540.5,495C 556.234,494.448 571.901,493.115 587.5,491C 602.068,486.691 616.734,482.691 631.5,479C 646.418,473.703 660.418,466.703 673.5,458C 675.81,457.503 678.143,457.337 680.5,457.5C 680.5,456.5 680.5,455.5 680.5,454.5C 687.715,452.762 694.715,450.428 701.5,447.5 Z"/></g>
<g><path style="opacity:1" fill="#b9b9b9" d="M 439.5,492.5 C 449.384,492.193 459.05,492.86 468.5,494.5C 458.655,494.233 448.988,493.566 439.5,492.5 Z"/></g>
<g><path style="opacity:1" fill="#f4f4f4" d="M 254.5,530.5 C 268.868,536.796 283.535,542.629 298.5,548C 310.711,550.548 323.045,552.214 335.5,553C 382.125,551.049 428.792,550.049 475.5,550C 507.447,547.337 539.447,545.67 571.5,545C 583.564,543.372 595.564,541.372 607.5,539C 631.715,529.807 656.049,521.307 680.5,513.5C 682.895,512.637 685.229,512.637 687.5,513.5C 681.215,528.444 672.881,542.111 662.5,554.5C 650.544,564.812 636.878,571.979 621.5,576C 590.022,583.917 558.022,588.251 525.5,589C 504.776,591.229 484.11,593.895 463.5,597C 447.52,598.363 431.52,598.696 415.5,598C 406.678,595.455 397.678,593.955 388.5,593.5C 388.67,592.178 388.337,591.011 387.5,590C 358.871,590.339 330.871,586.339 303.5,578C 296.35,574.859 289.683,570.859 283.5,566C 272.65,554.65 261.983,543.15 251.5,531.5C 252.325,530.614 253.325,530.281 254.5,530.5 Z"/></g>
<g><path style="opacity:1" fill="#191919" d="M 685.5,506.5 C 682.394,508.427 679.394,510.594 676.5,513C 677.793,513.49 679.127,513.657 680.5,513.5C 656.049,521.307 631.715,529.807 607.5,539C 595.564,541.372 583.564,543.372 571.5,545C 539.447,545.67 507.447,547.337 475.5,550C 428.792,550.049 382.125,551.049 335.5,553C 323.045,552.214 310.711,550.548 298.5,548C 283.535,542.629 268.868,536.796 254.5,530.5C 256.084,529.618 257.751,528.785 259.5,528C 257.881,527.764 256.881,526.931 256.5,525.5C 270.661,531.613 284.995,537.446 299.5,543C 311.374,545.515 323.374,547.182 335.5,548C 388.132,546.151 440.799,544.818 493.5,544C 504.913,543.737 516.246,542.737 527.5,541C 554.617,542.474 581.283,539.808 607.5,533C 633.146,523.252 659.146,514.418 685.5,506.5 Z"/></g>
</svg>
